# Blender v3.6.4 OBJ File: ''
# www.blender.org
mtllib door.mtl
o door01_Mesh.925
v -0.003949 -0.008840 -0.049040
v -0.003949 -0.009993 -0.049040
v -0.003949 -0.009993 -0.048450
v -0.003949 -0.008840 -0.048450
v -0.001521 0.020081 -0.048450
v -0.001521 0.020081 -0.049040
v -0.002476 0.019824 -0.049040
v -0.002476 0.019824 -0.048450
v -0.001122 -0.008791 -0.048313
v -0.001122 -0.009569 -0.048191
v -0.001919 -0.009569 -0.048191
v -0.001919 -0.008791 -0.048313
v -0.001919 0.006019 -0.045445
v -0.001919 -0.007742 -0.048194
v -0.001919 -0.007793 -0.047861
v -0.001919 0.005953 -0.045115
v 0.000384 0.018176 -0.048450
v -0.001521 0.018176 -0.048450
v -0.001521 0.007726 -0.048450
v 0.000384 0.007726 -0.048450
v -0.003428 0.007726 -0.048450
v -0.003949 0.007726 -0.048450
v -0.003949 0.006047 -0.048450
v -0.003428 0.006047 -0.048450
v 0.000384 0.006047 -0.048450
v 0.000903 0.006047 -0.048450
v 0.000903 0.007726 -0.048450
v 0.000384 -0.009993 -0.048450
v 0.000903 -0.009993 -0.048450
v 0.000903 -0.008840 -0.048450
v 0.000384 -0.008840 -0.048450
v -0.001521 0.006047 -0.048450
v -0.003428 0.018176 -0.048450
v -0.003949 0.018176 -0.048450
v -0.000571 0.019824 -0.048450
v -0.003169 0.019128 -0.048450
v 0.000128 0.019128 -0.048450
v -0.003169 0.019128 -0.049040
v -0.003428 0.018176 -0.049040
v -0.001521 0.004142 -0.048450
v -0.000571 0.004399 -0.048450
v -0.002476 0.004399 -0.048450
v -0.003169 0.005095 -0.048450
v 0.000128 0.005095 -0.048450
v 0.000903 0.018176 -0.048450
v 0.000903 0.018176 -0.049040
v 0.000384 0.018176 -0.049040
v -0.003949 0.018176 -0.049040
v -0.001521 0.004142 -0.049040
v -0.000571 0.004399 -0.049040
v -0.000571 0.019824 -0.049040
v 0.000128 0.019128 -0.049040
v 0.000903 0.007726 -0.049040
v -0.000583 0.006047 -0.044805
v -0.000855 0.005384 -0.044805
v -0.000855 0.005384 -0.048450
v -0.000583 0.006047 -0.048450
v -0.003949 0.007726 -0.049040
v 0.000384 0.006047 -0.049040
v 0.000903 0.006047 -0.049040
v -0.002476 0.004399 -0.049040
v -0.003169 0.005095 -0.049040
v 0.000128 0.005095 -0.049040
v -0.000855 0.006713 -0.044805
v -0.000855 0.006713 -0.048450
v -0.003949 0.006047 -0.049040
v -0.003428 0.006047 -0.049040
v -0.001122 -0.007793 -0.047861
v -0.001122 0.005953 -0.045115
v -0.001919 -0.009081 -0.045011
v -0.001122 -0.009081 -0.045011
v -0.001122 -0.008817 -0.045217
v -0.001919 -0.008817 -0.045217
v -0.001122 0.006019 -0.045445
v -0.001122 -0.007742 -0.048194
v -0.002458 0.006047 -0.044805
v -0.002186 0.006713 -0.044805
v -0.002186 0.006713 -0.048450
v -0.002458 0.006047 -0.048450
v -0.001521 0.006987 -0.044805
v -0.001521 0.006987 -0.048450
v -0.003428 -0.008840 -0.048450
v -0.003428 -0.009993 -0.048450
v -0.001521 0.005110 -0.044805
v -0.001521 0.005110 -0.048450
v -0.001919 -0.009437 -0.047871
v -0.001919 -0.009780 -0.047620
v -0.001122 -0.009780 -0.047620
v -0.001122 -0.009437 -0.047871
v -0.002186 0.005384 -0.044805
v -0.002186 0.005384 -0.048450
v -0.001122 -0.010067 -0.047823
v -0.001919 -0.010067 -0.047823
v -0.001521 0.006047 -0.044805
v -0.001122 -0.009421 -0.045999
v -0.001122 -0.009703 -0.045816
v -0.007210 -0.069144 -0.048775
v -0.007210 0.082806 -0.048775
v -0.007210 0.082806 -0.050988
v -0.007210 -0.069144 -0.050988
v -0.001919 -0.008786 -0.047975
v -0.001122 -0.008786 -0.047975
v -0.001919 -0.010100 -0.046571
v -0.001919 -0.009703 -0.045816
v -0.001919 -0.009421 -0.045999
v -0.001919 -0.009780 -0.046685
v 0.061576 -0.069144 -0.050988
v 0.061576 -0.069144 -0.048775
v -0.001919 -0.009891 -0.047234
v -0.001122 -0.009891 -0.047234
v -0.001919 -0.010237 -0.047249
v -0.001122 -0.009780 -0.046685
v -0.001122 -0.010237 -0.047249
v -0.001122 -0.010100 -0.046571
v -0.003428 -0.007684 -0.048450
v -0.001521 -0.008840 -0.048450
v -0.001521 -0.007684 -0.048450
v -0.003428 -0.007684 -0.049040
v -0.003949 -0.007684 -0.049040
v -0.003949 -0.007684 -0.048450
v 0.000384 -0.007684 -0.049040
v 0.000128 -0.006732 -0.049040
v 0.000128 -0.006732 -0.048450
v 0.000384 -0.007684 -0.048450
v -0.001521 -0.009993 -0.048450
v -0.000571 -0.006036 -0.048450
v -0.001521 -0.005779 -0.048450
v -0.002476 -0.006036 -0.048450
v -0.003169 -0.006732 -0.048450
v -0.000571 -0.006036 -0.049040
v -0.001521 -0.005779 -0.049040
v 0.000384 -0.009993 -0.049040
v 0.000903 -0.009993 -0.049040
v -0.003428 -0.009993 -0.049040
v -0.001521 -0.011898 -0.048450
v -0.000571 -0.011644 -0.048450
v -0.002476 -0.011644 -0.048450
v -0.003169 -0.010945 -0.048450
v 0.000128 -0.010945 -0.048450
v -0.000571 -0.011644 -0.049040
v 0.000128 -0.010945 -0.049040
v 0.000903 -0.008840 -0.049040
v 0.000903 -0.007684 -0.049040
v 0.000903 -0.007684 -0.048450
v 0.061576 0.082806 -0.050988
v -0.002476 -0.011644 -0.049040
v -0.001521 -0.011898 -0.049040
v -0.002476 -0.006036 -0.049040
v -0.003169 -0.010945 -0.049040
v -0.003169 -0.006732 -0.049040
v 0.061576 0.082806 -0.048775
vt 0.667400 0.708400
vt 0.667400 0.707900
vt 0.668400 0.707900
vt 0.668400 0.708400
vt 0.805300 0.850800
vt 0.805300 0.850300
vt 0.806100 0.850300
vt 0.806100 0.850800
vt 0.414000 0.224500
vt 0.414000 0.224000
vt 0.414700 0.223900
vt 0.414700 0.224500
vt 0.388500 0.331300
vt 0.388700 0.331200
vt 0.389000 0.341900
vt 0.388700 0.341900
vt 0.386700 0.354500
vt 0.386700 0.346600
vt 0.388200 0.346600
vt 0.388200 0.354500
vt 0.389700 0.355800
vt 0.389700 0.354500
vt 0.390100 0.354500
vt 0.390100 0.355800
vt 0.386400 0.355800
vt 0.386400 0.354500
vt 0.386700 0.355800
vt 0.643600 0.743400
vt 0.643600 0.742500
vt 0.644100 0.742500
vt 0.644100 0.743400
vt 0.388200 0.355800
vt 0.389700 0.346600
vt 0.390100 0.346600
vt 0.387500 0.345200
vt 0.388200 0.345000
vt 0.388900 0.345200
vt 0.389500 0.345800
vt 0.386900 0.345800
vt 0.652800 0.749800
vt 0.652800 0.749300
vt 0.653500 0.749300
vt 0.653500 0.749800
vt 0.806500 0.850300
vt 0.806500 0.850800
vt 0.388200 0.357200
vt 0.387500 0.357100
vt 0.388900 0.357100
vt 0.389500 0.356500
vt 0.386900 0.356500
vt 0.662000 0.745100
vt 0.662000 0.744700
vt 0.662400 0.744700
vt 0.662400 0.745100
vt 0.386400 0.346600
vt 0.653200 0.781400
vt 0.653200 0.781900
vt 0.652800 0.781900
vt 0.652800 0.781400
vt 0.648200 0.809100
vt 0.648200 0.809100
vt 0.648400 0.809100
vt 0.648400 0.809100
vt 0.804400 0.850800
vt 0.804400 0.850300
vt 0.666600 0.726800
vt 0.666600 0.726300
vt 0.667400 0.726300
vt 0.667400 0.726800
vt 0.790800 0.850300
vt 0.790800 0.850800
vt 0.782700 0.850800
vt 0.782700 0.850300
vt 0.677400 0.614300
vt 0.677400 0.611500
vt 0.677900 0.611500
vt 0.677900 0.614300
vt 0.400700 0.271500
vt 0.400200 0.271500
vt 0.400200 0.263600
vt 0.400700 0.263600
vt 0.648200 0.813700
vt 0.648200 0.813700
vt 0.648300 0.813700
vt 0.648300 0.813700
vt 0.666600 0.731400
vt 0.666600 0.730900
vt 0.667400 0.730900
vt 0.667400 0.731400
vt 0.668000 0.730900
vt 0.668000 0.731400
vt 0.658200 0.744700
vt 0.658200 0.745100
vt 0.657400 0.745100
vt 0.657400 0.744700
vt 0.652800 0.754400
vt 0.652800 0.753900
vt 0.653400 0.753900
vt 0.653400 0.754400
vt 0.676800 0.614300
vt 0.676800 0.611500
vt 0.648200 0.804500
vt 0.648200 0.804500
vt 0.648300 0.804500
vt 0.648300 0.804500
vt 0.993400 0.890700
vt 0.993500 0.901200
vt 0.992900 0.901200
vt 0.992700 0.890700
vt 0.781400 0.850800
vt 0.781400 0.850300
vt 0.652800 0.758800
vt 0.652800 0.758500
vt 0.653400 0.758500
vt 0.653400 0.758800
vt 0.414200 0.235900
vt 0.414000 0.225300
vt 0.414700 0.225300
vt 0.414900 0.235900
vt 0.680100 0.611500
vt 0.680100 0.614300
vt 0.679600 0.614300
vt 0.679600 0.611500
vt 0.676300 0.611500
vt 0.676300 0.614300
vt 0.675800 0.614300
vt 0.675800 0.611500
vt 0.668000 0.726300
vt 0.668000 0.726800
vt 0.676500 0.717100
vt 0.676500 0.717600
vt 0.675800 0.717600
vt 0.675800 0.717100
vt 0.647000 0.743300
vt 0.647000 0.742400
vt 0.647300 0.742400
vt 0.647400 0.743300
vt 0.678400 0.611500
vt 0.678400 0.614300
vt 0.993400 0.889200
vt 0.993400 0.889500
vt 0.992700 0.889500
vt 0.992700 0.889200
vt 0.679000 0.614300
vt 0.679000 0.611500
vt 0.652800 0.763100
vt 0.653100 0.763100
vt 0.653100 0.763600
vt 0.652800 0.763600
vt 0.414000 0.223500
vt 0.414700 0.223500
vt 0.667300 0.718600
vt 0.667300 0.717800
vt 0.667800 0.718300
vt 0.668000 0.717800
vt 0.667800 0.717300
vt 0.667300 0.717100
vt 0.666800 0.717300
vt 0.666600 0.717800
vt 0.666800 0.718300
vt 0.386600 0.318800
vt 0.386400 0.318700
vt 0.386900 0.318100
vt 0.387100 0.318300
vt 0.533400 0.153400
vt 0.535400 0.153400
vt 0.535400 0.037200
vt 0.533400 0.037200
vt 0.388700 0.330000
vt 0.388500 0.330000
vt 0.388700 0.319300
vt 0.389000 0.319300
vt 0.993400 0.890000
vt 0.992700 0.890000
vt 0.388900 0.342800
vt 0.388600 0.342700
vt 0.400200 0.262300
vt 0.400700 0.262300
vt 0.386900 0.343200
vt 0.387000 0.342900
vt 0.387500 0.343300
vt 0.387400 0.343500
vt 0.636200 0.726300
vt 0.634400 0.726300
vt 0.634400 0.779000
vt 0.636200 0.779000
vt 0.388700 0.343400
vt 0.388500 0.343200
vt 0.993400 0.888800
vt 0.992700 0.888800
vt 0.387900 0.343500
vt 0.387900 0.343700
vt 0.388300 0.343700
vt 0.388200 0.343500
vt 0.993400 0.888400
vt 0.992700 0.888400
vt 0.414000 0.222900
vt 0.414000 0.222500
vt 0.414600 0.222500
vt 0.414700 0.222900
vt 0.993400 0.887900
vt 0.992700 0.887900
vt 0.388300 0.317800
vt 0.388000 0.317800
vt 0.388000 0.317500
vt 0.388300 0.317500
vt 0.645400 0.742400
vt 0.645400 0.741500
vt 0.647000 0.741500
vt 0.388700 0.317900
vt 0.388500 0.318000
vt 0.993400 0.887100
vt 0.992700 0.887100
vt 0.387600 0.317900
vt 0.387500 0.317700
vt 0.414000 0.221900
vt 0.413900 0.221100
vt 0.414600 0.221000
vt 0.414600 0.221900
vt 0.388900 0.318500
vt 0.388600 0.318500
vt 0.653200 0.776800
vt 0.653200 0.777300
vt 0.652800 0.777300
vt 0.652800 0.776800
vt 0.386400 0.342500
vt 0.386600 0.342400
vt 0.658200 0.740100
vt 0.658200 0.740500
vt 0.657400 0.740500
vt 0.657400 0.740100
vt 0.644000 0.741500
vt 0.645400 0.743400
vt 0.644600 0.740300
vt 0.645400 0.740100
vt 0.646200 0.740300
vt 0.646700 0.740700
vt 0.644200 0.740800
vt 0.722200 0.631300
vt 0.721700 0.631300
vt 0.721700 0.630500
vt 0.722200 0.630500
vt 0.648600 0.776800
vt 0.648600 0.777300
vt 0.648200 0.777300
vt 0.648200 0.776800
vt 0.647300 0.741500
vt 0.644100 0.777200
vt 0.643600 0.777200
vt 0.643600 0.776800
vt 0.644100 0.776800
vt 0.645500 0.744700
vt 0.644700 0.744600
vt 0.646200 0.744500
vt 0.646700 0.744000
vt 0.644300 0.744000
vt 0.413900 0.248600
vt 0.414400 0.248600
vt 0.414400 0.249300
vt 0.413900 0.249300
vt 0.672900 0.707900
vt 0.672900 0.708400
vt 0.672000 0.708400
vt 0.672000 0.707900
vt 0.657400 0.758900
vt 0.657400 0.758500
vt 0.657800 0.758500
vt 0.657800 0.758900
vt 0.671100 0.244000
vt 0.671100 0.330500
vt 0.588500 0.330500
vt 0.588500 0.244000
vt 0.413900 0.250000
vt 0.414400 0.250000
vt 0.414400 0.250700
vt 0.413900 0.250700
vt 0.666600 0.708400
vt 0.666600 0.707900
vt 0.721700 0.629800
vt 0.722200 0.629800
vt 0.667400 0.722200
vt 0.667400 0.721700
vt 0.668000 0.721700
vt 0.668000 0.722200
vt 0.658800 0.735500
vt 0.658800 0.736000
vt 0.658100 0.736000
vt 0.658100 0.735500
vt 0.643600 0.741500
vt 0.657400 0.736000
vt 0.657400 0.735500
vt 0.446100 0.158000
vt 0.448100 0.158000
vt 0.448100 0.041800
vt 0.446100 0.041800
vt 0.627000 0.822800
vt 0.625200 0.822800
vt 0.625200 0.875400
vt 0.627000 0.875400
vt 0.722200 0.632000
vt 0.721700 0.632000
vt 0.672000 0.721700
vt 0.672000 0.722100
vt 0.671200 0.722100
vt 0.671200 0.721700
vt 0.666600 0.722200
vt 0.666600 0.721700
vt 0.671200 0.708400
vt 0.671200 0.707900
vt 0.671100 0.238700
vt 0.671100 0.152100
vt 0.588500 0.152100
vt 0.588500 0.238700
vn -1.0000 0.0000 0.0000
vn 0.0007 1.0000 0.0000
vn -0.5011 0.8654 0.0000
vn 0.0000 -0.0212 -0.9998
vn 0.0000 -0.3860 -0.9225
vn -1.0000 0.0000 0.0003
vn 0.0000 0.0000 1.0000
vn -0.8655 0.5008 0.0000
vn -0.9649 0.2625 0.0000
vn 0.0000 1.0000 0.0000
vn 0.5000 -0.8660 0.0000
vn 0.0007 -1.0000 0.0000
vn 0.5000 0.8660 0.0000
vn 0.9656 0.2601 0.0000
vn 0.8652 0.5014 0.0000
vn 1.0000 0.0000 0.0000
vn 0.9252 -0.3794 0.0000
vn 0.0000 -1.0000 0.0000
vn -0.5011 -0.8654 0.0000
vn -0.8655 -0.5008 0.0000
vn 0.9656 -0.2601 0.0000
vn 0.8652 -0.5014 0.0000
vn 0.9257 0.3782 0.0000
vn 0.0000 -0.1552 0.9879
vn 0.0000 -0.1959 0.9806
vn 0.0000 0.6146 0.7889
vn 0.0000 0.1958 -0.9806
vn 0.0000 0.1547 -0.9880
vn -0.9258 0.3780 0.0000
vn -0.3811 0.9245 0.0000
vn -0.9649 -0.2625 0.0000
vn 0.3811 -0.9245 0.0000
vn 0.0000 0.8197 0.5728
vn 0.0000 0.3855 0.9227
vn -0.9253 -0.3792 0.0000
vn 0.0000 0.9806 0.1962
vn 0.0000 -0.8190 -0.5738
vn 1.0000 -0.0000 -0.0003
vn 0.0000 0.0220 0.9998
vn 0.0000 0.9992 0.0404
vn 0.0000 0.9424 -0.3345
vn 0.0000 -0.9990 -0.0443
vn 0.0000 -0.9422 0.3350
vn 0.0000 0.8421 -0.5393
vn 0.0000 0.7913 -0.6115
vn 0.0000 -0.8415 0.5403
vn 0.0000 -0.7912 0.6115
vn -0.3811 -0.9245 0.0000
vn 0.8657 -0.5006 0.0000
vn 0.4997 -0.8662 0.0000
vn 0.0000 -0.0000 -1.0000
vn -0.5008 -0.8656 0.0000
vn -0.8660 -0.5000 0.0000
vn 0.3811 0.9245 0.0000
usemtl Material_#25
s 1
f 4/1/1 1/2/1 2/3/1 3/4/1
f 5/5/2 6/6/2 7/7/3 8/8/3
f 9/9/4 10/10/5 11/11/5 12/12/4
f 16/13/6 13/14/6 14/15/1 15/16/1
f 20/17/7 17/18/7 18/19/7 19/20/7
f 24/21/7 21/22/7 22/23/7 23/24/7
f 26/25/7 27/26/7 20/17/7 25/27/7
f 29/28/7 30/29/7 31/30/7 28/31/7
f 32/32/7 19/20/7 21/22/7 24/21/7
f 25/27/7 20/17/7 19/20/7 32/32/7
f 21/22/7 33/33/7 34/34/7 22/23/7
f 18/19/7 35/35/7 5/36/7
f 5/36/7 8/37/7 18/19/7
f 8/37/7 36/38/7 18/19/7
f 36/38/7 33/33/7 18/19/7
f 18/19/7 17/18/7 37/39/7
f 18/19/7 37/39/7 35/35/7
f 19/20/7 18/19/7 33/33/7 21/22/7
f 36/40/8 38/41/8 39/42/9 33/43/9
f 8/8/3 7/7/3 38/44/8 36/45/8
f 32/32/7 40/46/7 41/47/7
f 40/46/7 32/32/7 42/48/7
f 42/48/7 32/32/7 43/49/7
f 43/49/7 32/32/7 24/21/7
f 32/32/7 44/50/7 25/27/7
f 32/32/7 41/47/7 44/50/7
f 45/51/10 46/52/10 47/53/10 17/54/10
f 27/26/7 45/55/7 17/18/7 20/17/7
f 33/56/10 39/57/10 48/58/10 34/59/10
f 50/60/11 41/61/11 40/62/12 49/63/12
f 35/64/13 51/65/13 6/6/2 5/5/2
f 17/66/14 47/67/14 52/68/15 37/69/15
f 46/70/16 45/71/16 27/72/16 53/73/16
f 57/74/17 54/75/17 55/76/17 56/77/17
f 34/78/1 48/79/1 58/80/1 22/81/1
f 60/82/18 26/83/18 25/84/18 59/85/18
f 49/86/12 40/87/12 42/88/19 61/89/19
f 61/89/19 42/88/19 43/90/20 62/91/20
f 59/92/21 25/93/21 44/94/22 63/95/22
f 63/96/22 44/97/22 41/98/11 50/99/11
f 54/75/23 57/74/23 65/100/23 64/101/23
f 67/102/18 24/103/18 23/104/18 66/105/18
f 68/106/24 69/107/25 16/108/25 15/109/24
f 53/73/16 27/72/16 26/110/16 60/111/16
f 71/112/26 72/113/26 73/114/26 70/115/26
f 74/116/27 75/117/28 14/118/28 13/119/27
f 77/120/29 78/121/29 79/122/29 76/123/29
f 80/124/30 81/125/30 78/126/30 77/127/30
f 37/69/15 52/68/15 51/128/13 35/129/13
f 62/130/20 43/131/20 24/132/31 67/133/31
f 83/134/7 82/135/7 4/136/7 3/137/7
f 56/77/32 55/76/32 84/138/32 85/139/32
f 88/140/33 89/141/34 86/142/34 87/143/33
f 91/144/35 90/145/35 76/123/35 79/122/35
f 69/146/36 74/147/36 13/148/36 16/149/36
f 10/10/5 92/150/37 93/151/37 11/11/5
f 75/117/28 9/9/4 12/12/4 14/118/28
f 76/152/7 94/153/7 77/154/7
f 77/154/7 94/153/7 80/155/7
f 80/155/7 94/153/7 64/156/7
f 64/156/7 94/153/7 54/157/7
f 54/157/7 94/153/7 55/158/7
f 55/158/7 94/153/7 84/159/7
f 84/159/7 94/153/7 90/160/7
f 90/160/7 94/153/7 76/152/7
f 72/161/16 71/162/16 96/163/16 95/164/16
f 98/165/1 99/166/1 100/167/1 97/168/1
f 74/169/38 69/170/38 68/171/16 75/172/16
f 102/173/39 68/106/24 15/109/24 101/174/39
f 15/16/1 14/15/1 12/175/1 101/176/1
f 22/81/1 58/80/1 66/177/1 23/178/1
f 104/179/1 105/180/1 106/181/1 103/182/1
f 107/183/18 108/184/18 97/185/18 100/186/18
f 101/176/1 12/175/1 11/187/1 86/188/1
f 110/189/40 88/140/33 87/143/33 109/190/40
f 106/181/1 109/191/1 111/192/1 103/182/1
f 86/188/1 11/187/1 93/193/1 87/194/1
f 112/195/41 110/189/40 109/190/40 106/196/41
f 109/191/1 87/194/1 93/193/1 111/192/1
f 113/197/42 114/198/43 103/199/43 111/200/42
f 95/201/44 112/195/41 106/196/41 105/202/44
f 88/203/16 110/204/16 113/205/16 92/206/16
f 116/207/7 117/208/7 115/209/7 82/135/7
f 10/210/16 89/211/16 88/203/16 92/206/16
f 72/212/45 95/201/44 105/202/44 73/213/45
f 110/204/16 112/214/16 114/215/16 113/205/16
f 96/216/46 71/217/47 70/218/47 104/219/46
f 9/220/16 102/221/16 89/211/16 10/210/16
f 115/222/10 118/223/10 119/224/10 120/225/10
f 95/164/16 96/163/16 114/215/16 112/214/16
f 92/150/37 113/197/42 111/200/42 93/151/37
f 70/226/1 73/227/1 105/180/1 104/179/1
f 124/228/14 121/229/14 122/230/15 123/231/15
f 75/172/16 68/171/16 102/221/16 9/220/16
f 31/30/7 124/232/7 117/208/7 116/207/7
f 89/141/34 102/173/39 101/174/39 86/142/34
f 85/139/48 84/138/48 90/145/48 91/144/48
f 28/31/7 31/30/7 116/207/7 125/233/7
f 114/198/43 96/216/46 104/219/46 103/199/43
f 125/233/7 116/207/7 82/135/7 83/134/7
f 117/208/7 126/234/7 127/235/7
f 127/235/7 128/236/7 117/208/7
f 128/236/7 129/237/7 117/208/7
f 129/237/7 115/209/7 117/208/7
f 117/208/7 124/232/7 123/238/7
f 117/208/7 123/238/7 126/234/7
f 126/239/13 130/240/13 131/241/2 127/242/2
f 133/243/18 29/244/18 28/245/18 132/246/18
f 82/135/7 115/209/7 120/247/7 4/136/7
f 134/248/18 83/249/18 3/250/18 2/251/18
f 125/233/7 135/252/7 136/253/7
f 135/252/7 125/233/7 137/254/7
f 137/254/7 125/233/7 138/255/7
f 138/255/7 125/233/7 83/134/7
f 125/233/7 139/256/7 28/31/7
f 125/233/7 136/253/7 139/256/7
f 141/257/49 139/258/49 136/259/50 140/260/50
f 143/261/16 144/262/16 30/263/16 142/264/16
f 144/265/10 143/266/10 121/267/10 124/268/10
f 145/269/51 107/270/51 100/271/51 99/272/51
f 147/273/12 135/274/12 137/275/52 146/276/52
f 120/277/1 119/278/1 1/2/1 4/1/1
f 127/242/2 131/241/2 148/279/3 128/280/3
f 149/281/53 138/282/53 83/283/31 134/284/31
f 140/260/50 136/259/50 135/274/12 147/273/12
f 128/285/3 148/286/3 150/287/8 129/288/8
f 30/29/7 144/289/7 124/232/7 31/30/7
f 129/288/8 150/287/8 118/290/9 115/291/9
f 145/292/16 151/293/16 108/294/16 107/295/16
f 151/296/10 145/297/10 99/298/10 98/299/10
f 123/300/15 122/301/15 130/240/13 126/239/13
f 132/302/21 28/303/21 139/304/49 141/305/49
f 146/306/52 137/307/52 138/282/53 149/281/53
f 142/264/16 30/263/16 29/308/16 133/309/16
f 108/310/7 151/311/7 98/312/7 97/313/7
f 64/101/54 65/100/54 81/125/54 80/124/54
