# Blender 3.6.4
# www.blender.org
mtllib rug.mtl
o rug01_MDL_nar
v -0.132349 0.066381 0.384238
v -0.132349 0.066381 -0.060310
v 0.132349 0.066381 0.384238
v 0.132349 0.066381 -0.060310
v -0.132349 0.065138 0.384238
v -0.132349 0.065138 -0.060310
v 0.132349 0.065138 0.384238
v 0.132349 0.065138 -0.060310
v 0.133364 0.064472 0.161964
v 0.133364 0.066381 0.161964
v -0.133364 0.066381 0.161964
v -0.133364 0.064472 0.161964
v 0.000000 0.065138 -0.060310
v 0.000000 0.064472 0.161964
v 0.000000 0.065138 0.384238
v 0.000000 0.066381 0.384238
v 0.000000 0.066381 -0.060310
v 0.000000 0.064472 -0.059198
v -0.133364 0.064472 -0.059198
v -0.133364 0.066381 -0.059198
v 0.133364 0.066381 -0.059198
v 0.133364 0.064472 -0.059198
v -0.133364 0.066381 0.383127
v -0.133364 0.064472 0.383127
v 0.000000 0.064472 0.383127
v 0.133364 0.064472 0.383127
v 0.133364 0.066381 0.383127
v -0.132817 0.066381 0.393748
v 0.000000 0.066381 0.393748
v -0.132817 0.066381 -0.069820
v 0.000000 0.066381 -0.069820
v 0.132817 0.066381 0.393748
v 0.132817 0.066381 -0.069820
vn -0.0000 -1.0000 -0.0000
vn -0.8971 -0.0000 0.4419
vn -1.0000 -0.0000 0.0024
vn -0.0000 -0.0000 -1.0000
vn -0.0000 -0.0000 1.0000
vn 0.8971 -0.0000 0.4419
vn 1.0000 -0.0000 0.0025
vn 1.0000 -0.0000 -0.0024
vn 0.8971 -0.0000 -0.4419
vn -1.0000 -0.0000 -0.0024
vn -1.0000 -0.0000 -0.0000
vn 1.0000 -0.0000 -0.0000
vn 1.0000 -0.0000 0.0024
vt 0.298407 0.969245
vt 0.014754 0.969245
vt 0.013693 0.963805
vt 0.298407 0.963774
vt 0.011309 0.969302
vt 0.009139 0.969251
vt 0.009145 0.963834
vt 0.014754 0.032765
vt 0.014754 0.026368
vt 0.298407 0.026368
vt 0.298407 0.032765
vt 0.298407 0.975933
vt 0.014754 0.975933
vt 0.585217 0.969291
vt 0.583157 0.963807
vt 0.587327 0.963836
vt 0.587337 0.969248
vt 0.583157 0.037953
vt 0.585218 0.032753
vt 0.587337 0.032759
vt 0.587327 0.037871
vt 0.013693 0.037956
vt 0.009145 0.037877
vt 0.009139 0.032759
vt 0.011309 0.032751
vt 0.298407 0.038043
vt 0.582060 0.032765
vt 0.582060 0.969245
vt 0.582060 0.975933
vt 0.582060 0.026368
vt 0.298407 0.500881
vt 0.013646 0.500881
vt 0.009145 0.500881
vt 0.583131 0.500881
vt 0.587322 0.500881
vt 0.298407 0.995772
vt 0.014838 0.995772
vt 0.014838 0.006530
vt 0.298407 0.006530
vt 0.581975 0.995772
vt 0.581975 0.006530
s 1
usemtl blinn2
f 15/1/1 5/2/1 24/3/1 25/4/1
f 5/5/2 1/6/2 23/7/3 24/3/3
f 6/8/4 2/9/4 17/10/4 13/11/4
f 5/2/2 15/1/5 16/12/5 1/13/2
f 7/14/6 26/15/7 27/16/7 3/17/6
f 22/18/8 8/19/9 4/20/9 21/21/8
f 19/22/10 20/23/10 2/24/4 6/25/4
f 18/26/1 19/22/1 6/8/1 13/11/1
f 22/18/1 18/26/1 13/11/1 8/27/1
f 7/28/1 15/1/1 25/4/1 26/15/1
f 16/12/5 15/1/5 7/28/6 3/29/6
f 13/11/4 17/10/4 4/30/9 8/27/9
f 14/31/1 12/32/1 19/22/1 18/26/1
f 12/32/11 11/33/11 20/23/10 19/22/10
f 9/34/12 22/18/8 21/21/8 10/35/12
f 9/34/1 14/31/1 18/26/1 22/18/1
f 24/3/3 23/7/3 11/33/11 12/32/11
f 25/4/1 24/3/1 12/32/1 14/31/1
f 26/15/1 25/4/1 14/31/1 9/34/1
f 27/16/13 26/15/13 9/34/12 10/35/12
f 1/13/1 16/12/1 29/36/1 28/37/1
f 2/9/1 30/38/1 31/39/1 17/10/1
f 16/12/1 3/29/1 32/40/1 29/36/1
f 17/10/1 31/39/1 33/41/1 4/30/1
